<svg width="54" height="50" viewBox="0 0 54 50" fill="none" xmlns="http://www.w3.org/2000/svg">
<g filter="url(#filter0_d_0_1)">
<path d="M4 13C4 5.8203 9.8203 0 17 0H37C44.1797 0 50 5.8203 50 13V29C50 36.1797 44.1797 42 37 42H17C9.8203 42 4 36.1797 4 29V13Z" fill="white"/>
</g>
<g filter="url(#filter1_d_0_1)">
<path d="M34 23.5C34 28.1944 30.1944 32 25.5 32C20.8056 32 17 28.1944 17 23.5C17 18.8056 20.8056 15 25.5 15C30.1944 15 34 18.8056 34 23.5Z" fill="#FEFEFE"/>
<path d="M25.5 17C29.0899 17 32 19.9101 32 23.5C32 27.0899 29.0899 30 25.5 30C21.9101 30 19 27.0899 19 23.5C19 19.9101 21.9101 17 25.5 17Z" stroke="black" stroke-width="4"/>
</g>
<rect x="14" y="8" width="26" height="4" rx="2" fill="#0C0C0C"/>
<rect x="39.9995" y="8" width="26" height="4" rx="2" transform="rotate(89.141 39.9995 8)" fill="#0C0C0C"/>
<defs>
<filter id="filter0_d_0_1" x="0" y="0" width="54" height="50" filterUnits="userSpaceOnUse" color-interpolation-filters="sRGB">
<feFlood flood-opacity="0" result="BackgroundImageFix"/>
<feColorMatrix in="SourceAlpha" type="matrix" values="0 0 0 0 0 0 0 0 0 0 0 0 0 0 0 0 0 0 127 0" result="hardAlpha"/>
<feOffset dy="4"/>
<feGaussianBlur stdDeviation="2"/>
<feComposite in2="hardAlpha" operator="out"/>
<feColorMatrix type="matrix" values="0 0 0 0 0 0 0 0 0 0 0 0 0 0 0 0 0 0 0.25 0"/>
<feBlend mode="normal" in2="BackgroundImageFix" result="effect1_dropShadow_0_1"/>
<feBlend mode="normal" in="SourceGraphic" in2="effect1_dropShadow_0_1" result="shape"/>
</filter>
<filter id="filter1_d_0_1" x="13" y="15" width="25" height="25" filterUnits="userSpaceOnUse" color-interpolation-filters="sRGB">
<feFlood flood-opacity="0" result="BackgroundImageFix"/>
<feColorMatrix in="SourceAlpha" type="matrix" values="0 0 0 0 0 0 0 0 0 0 0 0 0 0 0 0 0 0 127 0" result="hardAlpha"/>
<feOffset dy="4"/>
<feGaussianBlur stdDeviation="2"/>
<feComposite in2="hardAlpha" operator="out"/>
<feColorMatrix type="matrix" values="0 0 0 0 0 0 0 0 0 0 0 0 0 0 0 0 0 0 0.25 0"/>
<feBlend mode="normal" in2="BackgroundImageFix" result="effect1_dropShadow_0_1"/>
<feBlend mode="normal" in="SourceGraphic" in2="effect1_dropShadow_0_1" result="shape"/>
</filter>
</defs>
</svg>
